<svg width="16" height="16" viewBox="0 0 16 16" fill="none" xmlns="http://www.w3.org/2000/svg">
<path fill-rule="evenodd" clip-rule="evenodd" d="M1.3335 2.66683C1.3335 1.93045 1.93045 1.3335 2.66683 1.3335H13.3335C14.0699 1.3335 14.6668 1.93045 14.6668 2.66683V13.3335C14.6668 14.0699 14.0699 14.6668 13.3335 14.6668H2.66683C1.93045 14.6668 1.3335 14.0699 1.3335 13.3335V12.0002C1.3335 11.632 1.63197 11.3335 2.00016 11.3335C2.36835 11.3335 2.66683 11.632 2.66683 12.0002V13.3335H8.66683V12.0002C8.66683 11.632 8.96531 11.3335 9.3335 11.3335C9.70169 11.3335 10.0002 11.632 10.0002 12.0002V13.3335H13.3335V7.3335H10.0002V9.00016C10.0002 9.36835 9.70169 9.66683 9.3335 9.66683C8.96531 9.66683 8.66683 9.36835 8.66683 9.00016V7.3335C8.66683 6.59712 9.26378 6.00016 10.0002 6.00016H13.3335V2.66683H2.66683V6.00016H6.00016C6.36835 6.00016 6.66683 6.29864 6.66683 6.66683C6.66683 7.03502 6.36835 7.3335 6.00016 7.3335H2.66683V8.66683C2.66683 9.03502 2.36835 9.3335 2.00016 9.3335C1.63197 9.3335 1.3335 9.03502 1.3335 8.66683V2.66683Z" fill="#5A5A5A"/>
</svg>
